<?xml version="1.0" standalone="no"?>
<!DOCTYPE svg PUBLIC "-//W3C//DTD SVG 20010904//EN"
 "http://www.w3.org/TR/2001/REC-SVG-20010904/DTD/svg10.dtd">
<svg version="1.0" xmlns="http://www.w3.org/2000/svg"
 width="44.000000pt" height="44.000000pt" viewBox="0 0 44.000000 44.000000"
 preserveAspectRatio="xMidYMid meet">

<g transform="translate(0.000000,44.000000) scale(0.100000,-0.100000)"
fill="#000000" stroke="none">
<path d="M71 366 c-13 -14 -21 -32 -18 -43 4 -16 5 -15 6 3 1 26 31 54 58 54
11 0 38 -19 60 -43 l40 -43 44 43 c50 49 63 52 98 21 l26 -23 -24 28 c-14 15
-31 27 -39 27 -8 0 -35 -19 -59 -41 l-45 -41 -42 41 c-48 47 -73 51 -105 17z"/>
<path d="M330 267 l-45 -42 50 -45 50 -44 -42 45 -43 45 42 42 c55 54 46 54
-12 -1z"/>
<path d="M93 264 l37 -40 -35 -34 c-47 -46 -54 -74 -24 -106 12 -13 27 -24 32
-24 5 0 -2 9 -17 21 -36 28 -33 47 17 99 l43 45 -46 40 -45 39 38 -40z"/>
<path d="M168 105 c-26 -25 -44 -45 -39 -45 4 0 25 18 46 40 l39 40 41 -37 40
-38 -40 43 c-21 23 -39 42 -40 42 0 0 -21 -21 -47 -45z"/>
<path d="M349 83 l-24 -28 28 24 c15 14 27 26 27 28 0 8 -8 1 -31 -24z"/>
</g>
</svg>
